<svg width="19" height="19" viewBox="0 0 19 19" fill="none" xmlns="http://www.w3.org/2000/svg">
<path fill-rule="evenodd" clip-rule="evenodd" d="M15.1199 2.02553C14.1449 2.19897 12.8305 2.63535 10.9857 3.25026L6.80967 4.64228C5.32632 5.13674 4.25192 5.49541 3.49305 5.81817C2.69966 6.15561 2.41742 6.39083 2.32576 6.5485C2.04342 7.03416 2.04342 7.63397 2.32576 8.11962C2.41742 8.27729 2.69966 8.51251 3.49305 8.84995C4.25192 9.17272 5.32632 9.53139 6.80967 10.0258C6.8331 10.0336 6.85622 10.0413 6.87906 10.0489C7.28421 10.1837 7.59917 10.2885 7.87012 10.4699C8.13116 10.6446 8.3554 10.8688 8.53015 11.1299C8.71153 11.4008 8.8163 11.7158 8.95107 12.1209C8.95866 12.1438 8.96636 12.1669 8.97416 12.1903C9.46862 13.6737 9.82728 14.7481 10.15 15.507C10.4875 16.3003 10.7227 16.5826 10.8804 16.6742C11.366 16.9566 11.9658 16.9566 12.4515 16.6742C12.6092 16.5826 12.8444 16.3003 13.1818 15.507C13.5046 14.7481 13.8633 13.6737 14.3577 12.1903L15.7497 8.01427C16.3646 6.16953 16.801 4.85506 16.9745 3.88008C17.1487 2.90046 17.0156 2.48433 16.7656 2.23439C16.5157 1.98444 16.0995 1.85126 15.1199 2.02553ZM14.8957 0.764812C15.9808 0.571771 16.9582 0.616014 17.6711 1.32893C18.384 2.04184 18.4282 3.01919 18.2352 4.10435C18.0433 5.18296 17.5754 6.58663 16.983 8.36375L15.5622 12.6261C15.0802 14.0722 14.7056 15.196 14.3602 16.0081C14.027 16.7915 13.657 17.4546 13.0951 17.7813C12.2115 18.2949 11.1203 18.2949 10.2368 17.7813C9.67485 17.4546 9.30488 16.7915 8.97169 16.0081C8.62626 15.196 8.2517 14.0723 7.76964 12.6261L7.75937 12.5953C7.59048 12.0886 7.539 11.9512 7.46607 11.8422C7.38444 11.7203 7.2797 11.6156 7.15777 11.5339C7.04883 11.461 6.9114 11.4095 6.40474 11.2406L6.37387 11.2303C4.92771 10.7483 3.80402 10.3737 2.99187 10.0283C2.20847 9.69511 1.54542 9.32515 1.21873 8.76319C0.705086 7.87967 0.705086 6.78846 1.21873 5.90493C1.54542 5.34298 2.20847 4.97301 2.99187 4.63981C3.80403 4.29438 4.92774 3.91982 6.37393 3.43776L10.6363 2.01698C12.4134 1.42459 13.817 0.956687 14.8957 0.764812ZM14.7341 4.27094C14.9827 4.52235 14.9805 4.92773 14.7291 5.17638L11.3144 8.55343C11.063 8.80208 10.6576 8.79983 10.4089 8.54842C10.1603 8.297 10.1625 7.89162 10.4139 7.64297L13.8286 4.26592C14.0801 4.01727 14.4854 4.01952 14.7341 4.27094Z" fill="#FFB620"/>
</svg>
